<svg id="logo-89" width="32" height="32" viewBox="0 0 40 40" fill="none" xmlns="http://www.w3.org/2000/svg">
  <path class="ccustom" d="M31.9559 17.1198H25.2163C20.1998 17.1198 15.6002 21.7194 15.6002 26.7369V31.9559C28.1749 31.4918 31.4918 28.1749 31.9559 17.1198Z" fill="#808080"></path>
  <path class="ccustom" d="M15.6002 31.9559V26.7369C15.6002 21.7194 11.0006 17.1198 5.98307 17.1198H0.0000658C0.464288 28.1749 3.78122 31.4918 15.6002 31.9559Z" fill="#808080"></path>
  <path class="ccustom" d="M31.9559 11.1198C31.4918 0.926885 28.1749 0.464288 17.1198 0.0000658V6.64037C17.1198 13.4554 23.2924 19.1198 30.4819 19.1198H31.9559Z" fill="#808080"></path>
  <path class="ccustom" d="M15.6002 0.0000658C5.40734 0.464288 0.926885 5.40734 0.0000658 15.6002H6.64037C13.4554 15.6002 19.1198 11.1198 19.1198 6.64037V0.0000658Z" fill="#808080"></path>
  <path class="ccustom" d="M11.583 13.9998C14.4685 12.7112 16.4685 10.7112 18.0002 8.0002C19.5319 10.7112 21.5319 12.7112 24.4175 13.9998C21.5319 15.2884 19.5319 17.2884 18.0002 19.9998C16.4685 17.2884 14.4685 15.2884 11.583 13.9998Z" fill="#808080"></path>
</svg>
